<?xml version="1.0" ?><!DOCTYPE svg  PUBLIC '-//W3C//DTD SVG 1.1//EN'  'http://www.w3.org/Graphics/SVG/1.1/DTD/svg11.dtd'><svg height="512px" style="shape-rendering:geometricPrecision; text-rendering:geometricPrecision; image-rendering:optimizeQuality; fill-rule:evenodd; clip-rule:evenodd" version="1.1" viewBox="0 0 512 512" width="512px" xml:space="preserve" xmlns="http://www.w3.org/2000/svg" xmlns:xlink="http://www.w3.org/1999/xlink"><defs><style type="text/css">
   <![CDATA[
    .fil1 {fill:#2B2A29}
    .fil0 {fill:#2B2A29;fill-rule:nonzero}
   ]]>
  </style></defs><g id="Layer_x0020_1"><g id="_578274352"><polygon class="fil0" points="221,308 254,308 287,308 255,193 230,275 136,275 201,90 308,90 424,421 319,421 310,389 310,389 307,377 276,377 276,377 202,377 189,421 85,421 124,308 "/><path class="fil1" d="M29 10l451 0c11,0 20,9 20,20l0 451c0,11 -9,20 -20,20l-451 0c-11,0 -20,-9 -20,-20l0 -451c0,-11 9,-20 20,-20zm13 14l425 0c10,0 19,8 19,19l0 425c0,10 -8,19 -19,19l-425 0c-10,0 -19,-8 -19,-19l0 -425c0,-10 8,-19 19,-19z"/></g></g></svg>